<svg width="1280" height="720" xmlns="http://www.w3.org/2000/svg" xmlns:xlink="http://www.w3.org/1999/xlink" overflow="hidden"><defs><clipPath id="clip0"><rect x="0" y="0" width="1280" height="720"/></clipPath></defs><g clip-path="url(#clip0)"><rect x="0" y="0" width="1280" height="720" fill="#FFFFFF"/><rect x="0" y="0" width="1280" height="722" fill="#BFBFBF"/><path d="M11 67.407C11 56.1365 20.1365 47 31.407 47L1247.59 47C1258.86 47 1268 56.1365 1268 67.407L1268 686.593C1268 697.863 1258.86 707 1247.59 707L31.407 707C20.1365 707 11 697.863 11 686.593Z" fill="#F2F2F2" fill-rule="evenodd"/><path d="M20.4949 11 1258.51 11C1263.75 11 1268 15.251 1268 20.4949L1268 79 11 79 11 20.4949C11 15.251 15.251 11 20.4949 11Z" fill="#DEDEDE" fill-rule="evenodd"/></g></svg>