<svg width="1280" height="720" xmlns="http://www.w3.org/2000/svg" xmlns:xlink="http://www.w3.org/1999/xlink" overflow="hidden"><defs><linearGradient x1="-42.1798" y1="240.213" x2="1322.18" y2="480.787" gradientUnits="userSpaceOnUse" spreadMethod="reflect" id="fill0"><stop offset="0" stop-color="#D7E5FD"/><stop offset="0.59" stop-color="#DBE4F5"/><stop offset="1" stop-color="#B3CEFB"/></linearGradient></defs><g><rect x="0" y="0" width="1280" height="720" fill="#FFFFFF"/><rect x="0" y="1" width="1280" height="719" fill="url(#fill0)"/><path d="M8 71.4072C8 60.1366 17.1366 51 28.4072 51L1254.59 51C1265.86 51 1275 60.1366 1275 71.4072L1275 690.593C1275 701.863 1265.86 711 1254.59 711L28.4072 711C17.1366 711 8 701.863 8 690.593Z" fill="#F3F4F8" fill-rule="evenodd"/><path d="M17.4956 6 1265.5 6C1270.75 6 1275 10.2514 1275 15.4958L1275 74 8 74 8 15.4958C8 10.2514 12.2513 6 17.4956 6Z" fill="#FFFFFF" fill-rule="evenodd"/></g></svg>