<svg version="1.2" xmlns="http://www.w3.org/2000/svg" viewBox="0 0 1608 392" width="1608" height="392">
	<title>OM_BIG-svg</title>
	<style>
		.s0 { fill: #ffffff } 
		.s1 { fill: #f56935 } 
	</style>
	<g id="Layer">
		<g id="Layer">
			<g id="Layer">
				<path id="Layer" fill-rule="evenodd" class="s0" d="m1015.4 295.3c1.6 21.2 17.4 40.8 49 40.8 23.9 0 35.4-12.5 35.4-26.7 0-11.9-8.2-21.7-28.9-26.1l-35.4-8.2c-51.7-11.4-75.1-42.5-75.1-80 0-48 42.5-87.7 100.2-87.7 76.2 0 101.8 48.4 105.1 77.3l-60.5 13.6c-2.1-15.7-13.6-35.9-44.1-35.9-19 0-34.3 11.4-34.3 26.7 0 13 9.8 21.2 24.5 23.9l38.1 8.2c52.9 10.9 79.5 43 79.5 82.3 0 43.5-33.7 88.2-104 88.2-80.6 0-108.3-52.3-111.6-82.8zm430.7 11.4c-13.6 46.3-56.1 85-122 85-73.5 0-138.3-52.8-138.3-143.3 0-85.4 63.2-141 131.8-141 82.8 0 132.3 52.8 132.3 138.9 0 10.3-1.1 21.2-1.1 22.3h-191.6c1.6 35.4 31.5 61 67.5 61 33.7 0 52.3-16.9 61-40.8zm-67.6-87.7c-1.1-26.7-18.5-52.9-59.9-52.9-37.5 0-58.2 28.4-59.9 52.9zm166.9-103.5h62.1v64.2h-62.1v112.2c0 23.5 10.9 31.1 31.6 31.1 8.7 0 18.5-1.1 22.3-2.2v59.9c-6.5 2.7-19.6 6.6-40.8 6.6-52.3 0-85-31.1-85-82.8v-269.4h71.9zm-669.8 0h62.1v64.3h-62.1v112.2c0 23.4 10.9 31 31.6 31 8.7 0 18.5-1.1 22.3-2.2v59.9c-6.5 2.8-19.6 6.6-40.8 6.6-52.3 0-85-31.1-85-82.8v-269.4h71.9zm-109.1 0v156.6c0 77.4-54.3 118.3-122.2 118.3-67.9 0-122.3-40.9-122.3-118.3v-156.6h71.5v155.3c0 35.5 19.8 53.3 50.8 53.3 31 0 50.8-17.8 50.8-53.3v-155.3z"/>
				<path id="Layer" fill-rule="evenodd" class="s1" d="m490.6 195.9c0 108.3-87.7 196-195.9 196-108.2 0-195.9-87.7-195.9-196 0-108.2 87.7-195.9 195.9-195.9 108.2 0 195.9 87.7 195.9 195.9zm-75.3 0c0-66.6-54-120.5-120.6-120.5-66.6 0-120.6 53.9-120.6 120.5 0 66.6 54 120.6 120.6 120.6 66.6 0 120.6-54 120.6-120.6z"/>
				<path id="Layer" class="s1" d="m51.1 387.7c-28.3 0-51.1-22.8-51.1-51.1 0-28.2 22.8-51.1 51.1-51.1 28.2 0 51.1 22.9 51.1 51.1 0 28.3-22.9 51.1-51.1 51.1z"/>
			</g>
		</g>
	</g>
</svg>