<svg width="1280" height="720" xmlns="http://www.w3.org/2000/svg" xmlns:xlink="http://www.w3.org/1999/xlink" overflow="hidden"><defs><linearGradient x1="-42.2653" y1="239.698" x2="1322.27" y2="480.302" gradientUnits="userSpaceOnUse" spreadMethod="reflect" id="fill0"><stop offset="0" stop-color="#E4F4F6"/><stop offset="0.0307143" stop-color="#E5F4F6"/><stop offset="0.0614286" stop-color="#E7F4F6"/><stop offset="0.0921429" stop-color="#E9F4F6"/><stop offset="0.122857" stop-color="#EBF4F6"/><stop offset="0.153571" stop-color="#ECF4F7"/><stop offset="0.184286" stop-color="#EDF4F7"/><stop offset="0.215" stop-color="#EEF3F7"/><stop offset="0.245714" stop-color="#EFF4F7"/><stop offset="0.276429" stop-color="#F0F4F7"/><stop offset="0.307143" stop-color="#F1F4F7"/><stop offset="0.337857" stop-color="#F2F4F7"/><stop offset="0.368571" stop-color="#F2F4F7"/><stop offset="0.399286" stop-color="#F2F4F7"/><stop offset="0.43" stop-color="#F3F4F8"/><stop offset="0.470714" stop-color="#F2F4F7"/><stop offset="0.511429" stop-color="#F2F4F7"/><stop offset="0.552143" stop-color="#F2F4F7"/><stop offset="0.592857" stop-color="#F1F4F7"/><stop offset="0.633571" stop-color="#F0F4F7"/><stop offset="0.674286" stop-color="#EFF4F7"/><stop offset="0.715" stop-color="#EEF3F7"/><stop offset="0.755714" stop-color="#EDF4F7"/><stop offset="0.796429" stop-color="#ECF4F7"/><stop offset="0.837143" stop-color="#EBF4F6"/><stop offset="0.877857" stop-color="#E9F4F6"/><stop offset="0.918571" stop-color="#E7F4F6"/><stop offset="0.959286" stop-color="#E5F4F6"/><stop offset="1" stop-color="#E4F4F6"/></linearGradient></defs><g><rect x="0" y="0" width="1280" height="720" fill="#FFFFFF"/><rect x="0" y="0" width="1280" height="720" fill="url(#fill0)"/><path d="M8 71.4072C8 60.1366 17.1366 51 28.4072 51L1254.59 51C1265.86 51 1275 60.1366 1275 71.4072L1275 690.593C1275 701.863 1265.86 711 1254.59 711L28.4072 711C17.1366 711 8 701.863 8 690.593Z" fill="#F3F4F8" fill-rule="evenodd"/><path d="M17.4956 6 1265.5 6C1270.75 6 1275 10.2514 1275 15.4958L1275 74 8 74 8 15.4958C8 10.2514 12.2513 6 17.4956 6Z" fill="#04454D" fill-rule="evenodd"/></g></svg>