<?xml version="1.0" encoding="UTF-8"?> <svg xmlns="http://www.w3.org/2000/svg" id="Layer_1" version="1.1" viewBox="0 0 436.9 106.5"><defs><style> .st0 { fill: #3d3935; } .st1 { fill: #ff6a39; } </style></defs><path class="st0" d="M275.9,80.2c.4,5.8,4.7,11.1,13.3,11.1s9.6-3.4,9.6-7.2-2.2-5.9-7.9-7.1l-9.6-2.2c-14.1-3.1-20.4-11.5-20.4-21.8s11.5-23.8,27.2-23.8,27.7,13.2,28.6,21l-16.4,3.7c-.6-4.3-3.7-9.8-12-9.8s-9.3,3.1-9.3,7.2,2.7,5.8,6.7,6.5l10.4,2.2c14.4,3,21.6,11.7,21.6,22.3s-9.2,24-28.3,24-29.5-14.2-30.3-22.5l16.9-3.7h0Z"></path><path class="st0" d="M393,83.3c-3.7,12.6-15.2,23.1-33.1,23.1s-37.6-14.4-37.6-38.9,17.2-38.3,35.8-38.3,36,14.4,36,37.7-.3,5.8-.3,6.1h-52.1c.4,9.6,8.6,16.6,18.4,16.6s14.2-4.6,16.6-11.1l16.4,4.9h0ZM374.6,59.5c-.3-7.2-5-14.4-16.3-14.4s-15.8,7.7-16.3,14.4h32.6Z"></path><path class="st0" d="M420,31.4h16.9v17.5h-16.9v30.5c0,6.4,3,8.4,8.6,8.4s5-.3,6.1-.6v16.3c-1.8.7-5.3,1.8-11.1,1.8-14.2,0-23.1-8.4-23.1-22.5V9.6h19.5v21.8h0Z"></path><path class="st0" d="M238,31.4h16.9v17.5h-16.9v30.5c0,6.4,3,8.4,8.6,8.4s5-.3,6.1-.6v16.3c-1.8.7-5.3,1.8-11.1,1.8-14.2,0-23.1-8.4-23.1-22.5V9.6h19.5v21.8h0Z"></path><path class="st0" d="M188.9,31.4v42.2c0,9.7-5.4,14.5-13.8,14.5s-13.8-4.8-13.8-14.5V31.4h-19.4v42.5c0,21.1,14.8,32.2,33.2,32.2s33.2-11.1,33.2-32.2V31.4h-19.4Z"></path><path class="st1" d="M80.1,0C50.7,0,26.9,23.8,26.9,53.2s23.8,53.2,53.2,53.2,53.2-23.8,53.2-53.2S109.5,0,80.1,0ZM80.1,86c-18.1,0-32.8-14.7-32.8-32.8s14.7-32.8,32.8-32.8,32.8,14.7,32.8,32.8-14.7,32.8-32.8,32.8Z"></path><circle class="st1" cx="13.9" cy="91.5" r="13.9"></circle></svg> 