<svg width="1280" height="720" xmlns="http://www.w3.org/2000/svg" xmlns:xlink="http://www.w3.org/1999/xlink" overflow="hidden"><defs><linearGradient x1="-42.1798" y1="240.213" x2="1322.18" y2="480.787" gradientUnits="userSpaceOnUse" spreadMethod="reflect" id="fill0"><stop offset="0" stop-color="#D7E5FD"/><stop offset="0.59" stop-color="#DBE4F5"/><stop offset="1" stop-color="#B3CEFB"/></linearGradient></defs><g><rect x="0" y="0" width="1280" height="720" fill="#FFFFFF"/><rect x="0" y="1" width="1280" height="719" fill="url(#fill0)"/><path d="M22 80.9742C22 69.9427 30.9427 61 41.9742 61L1238.03 61C1249.06 61 1258 69.9427 1258 80.9742L1258 687.026C1258 698.057 1249.06 707 1238.03 707L41.9742 707C30.9427 707 22 698.057 22 687.026Z" fill="#F3F4F8" fill-rule="evenodd"/><path d="M31.4957 20 1248.5 20C1253.75 20 1258 24.2515 1258 29.4959L1258 88 22 88 22 29.4959C22 24.2515 26.2514 20 31.4957 20Z" fill="#FFFFFF" fill-rule="evenodd"/></g></svg>